<?xml version="1.0" standalone="no"?>
<!DOCTYPE svg PUBLIC "-//W3C//DTD SVG 20010904//EN"
 "http://www.w3.org/TR/2001/REC-SVG-20010904/DTD/svg10.dtd">
<svg version="1.0" xmlns="http://www.w3.org/2000/svg"
 width="50.000000pt" height="50.000000pt" viewBox="0 0 50.000000 50.000000"
 preserveAspectRatio="xMidYMid meet">

<g transform="translate(0.000000,50.000000) scale(0.100000,-0.100000)"
fill="#000000" stroke="none">
<path d="M205 394 c-14 -15 -25 -30 -25 -35 0 -4 -15 -5 -34 -2 -41 6 -76 -23
-76 -63 0 -26 0 -26 -26 -9 -34 22 -46 9 -14 -15 43 -33 109 -45 242 -45 l126
0 -41 -17 c-23 -9 -75 -22 -114 -29 -83 -13 -102 -35 -23 -25 76 10 170 42
223 75 45 30 66 61 30 46 -46 -19 -50 -18 -45 15 7 47 -22 74 -70 66 -21 -4
-38 -2 -38 2 0 18 -50 62 -70 62 -12 0 -32 -12 -45 -26z m80 -18 c22 -33 29
-89 16 -115 -17 -30 -85 -30 -102 0 -23 44 12 139 51 139 11 0 27 -11 35 -24z
m-129 -44 c6 -4 14 -25 17 -48 7 -41 6 -41 -21 -36 -52 9 -78 52 -50 80 13 13
37 15 54 4z m242 -4 c13 -13 16 -47 4 -64 -4 -6 -24 -14 -45 -18 l-37 -7 6 43
c4 24 12 46 18 50 17 11 41 9 54 -4z"/>
<path d="M10 243 c1 -10 7 -29 15 -43 18 -32 18 -41 0 -34 -8 4 -15 1 -15 -5
0 -7 30 -26 68 -44 61 -29 76 -32 162 -32 80 0 103 4 143 24 52 25 101 80 95
107 -2 12 -10 6 -28 -22 -14 -21 -45 -50 -70 -63 -33 -18 -41 -20 -31 -8 23
28 7 29 -40 2 -72 -41 -165 -27 -230 35 -48 45 -52 67 -9 45 32 -17 50 -19 50
-7 0 6 -45 33 -102 60 -5 2 -8 -5 -8 -15z"/>
</g>
</svg>
